<svg width="369" height="94" viewBox="0 0 369 94" fill="none" xmlns="http://www.w3.org/2000/svg">
<path d="M64.218 17.663C64.218 17.9643 64.1803 18.4917 64.105 19.245C64.105 19.923 64.0673 20.6387 63.992 21.392C63.9167 22.1453 63.8037 22.8233 63.653 23.426C63.5023 24.0287 63.3517 24.33 63.201 24.33C61.393 32.6167 59.7357 41.7697 58.229 51.789C56.7977 61.8083 54.8013 72.581 52.24 84.107C51.7127 86.2163 50.8087 87.836 49.528 88.966C48.2473 90.096 46.816 90.8117 45.234 91.113C43.7273 91.4897 42.183 91.4897 40.601 91.113C39.019 90.7363 37.663 90.096 36.533 89.192C35.403 87.5347 34.4237 85.3123 33.595 82.525C32.7663 79.6623 32.013 76.4983 31.335 73.033C30.7323 69.5677 30.1673 65.9517 29.64 62.185C29.188 58.4183 28.7737 54.7647 28.397 51.224C28.0957 47.608 27.7943 44.2933 27.493 41.28C27.267 38.1913 27.041 35.63 26.815 33.596C26.589 32.3907 26.4383 30.997 26.363 29.415C26.2877 27.833 25.9487 26.6653 25.346 25.912C23.1613 29.9047 21.3533 34.274 19.922 39.02C18.566 43.766 17.3983 48.6627 16.419 53.71C15.515 58.682 14.7617 63.6917 14.159 68.739C13.5563 73.7863 13.029 78.6077 12.577 83.203C12.351 84.1823 12.125 85.237 11.899 86.367C11.673 87.497 11.2587 88.2503 10.656 88.627C10.2793 88.627 9.94033 88.401 9.639 87.949C9.413 87.4217 9.22467 87.0827 9.074 86.932C8.77267 86.5553 8.58433 86.141 8.509 85.689C8.43367 85.237 8.32067 84.9357 8.17 84.785C7.944 84.4083 7.68033 84.0317 7.379 83.655C7.153 83.203 6.927 82.864 6.701 82.638L6.362 82.751L5.797 81.96C5.64633 81.96 5.458 81.96 5.232 81.96C5.006 81.96 4.81767 81.7717 4.667 81.395C4.51633 81.4703 4.29033 81.4327 3.989 81.282C3.763 81.056 3.424 80.7923 2.972 80.491H2.52C2.36933 80.1143 2.25633 79.7377 2.181 79.361C2.10567 78.9843 1.955 78.6453 1.729 78.344C1.20167 73.146 1.051 67.7973 1.277 62.298C1.57833 56.7987 2.25633 51.45 3.311 46.252C4.441 40.9787 5.98533 36.0443 7.944 31.449C9.90267 26.7783 12.351 22.748 15.289 19.358C16.9463 17.776 18.5283 16.7967 20.035 16.42C21.5417 15.968 22.973 15.968 24.329 16.42C25.685 16.872 26.9657 17.6253 28.171 18.68C29.3763 19.7347 30.5063 20.94 31.561 22.296C32.6157 23.652 33.5573 25.0833 34.386 26.59C35.29 28.0213 36.1187 29.3397 36.872 30.545C36.872 30.771 36.9473 31.0347 37.098 31.336C37.1733 31.4867 37.2863 31.5997 37.437 31.675C37.9643 32.579 38.4163 33.9727 38.793 35.856C39.245 37.664 39.6217 39.7733 39.923 42.184C40.2997 44.5947 40.601 47.1937 40.827 49.981C41.1283 52.693 41.392 55.3297 41.618 57.891C41.9193 60.4523 42.183 62.863 42.409 65.123C42.635 67.3077 42.8987 69.078 43.2 70.434C43.426 70.8107 43.5767 71.2627 43.652 71.79C43.7273 72.242 43.878 72.6187 44.104 72.92C44.33 72.5433 44.443 72.2043 44.443 71.903C44.443 71.6017 44.556 71.3757 44.782 71.225C45.7613 65.575 46.6653 60.2263 47.494 55.179C48.398 50.0563 49.302 45.1973 50.206 40.602C51.11 35.9313 52.0893 31.5243 53.144 27.381C54.1987 23.1623 55.4417 19.132 56.873 15.29C56.873 14.612 56.9107 14.16 56.986 13.934C57.1367 13.6327 57.2873 13.4443 57.438 13.369C57.664 13.2937 57.8523 13.2937 58.003 13.369C58.1537 13.369 58.2667 13.3313 58.342 13.256C58.342 13.482 58.3797 13.5573 58.455 13.482L58.681 13.256C58.907 13.4067 59.2837 13.821 59.811 14.499C60.3383 15.177 60.8657 15.8173 61.393 16.42C61.9203 17.0227 62.41 17.5123 62.862 17.889C63.314 18.2657 63.653 18.228 63.879 17.776L64.218 17.663ZM18.114 34.387C18.114 34.3117 18.1517 34.274 18.227 34.274C18.3777 34.274 18.453 34.3493 18.453 34.5C18.453 34.6507 18.453 34.7637 18.453 34.839C18.7543 34.0857 19.0557 33.4453 19.357 32.918C19.6583 32.3153 19.9597 31.675 20.261 30.997C20.6377 30.3943 20.9013 29.9047 21.052 29.528C21.2027 29.076 21.3533 28.6617 21.504 28.285C21.278 28.8123 21.0143 29.3397 20.713 29.867C20.487 30.3943 20.261 30.8463 20.035 31.223C19.8843 31.5997 19.7713 31.8257 19.696 31.901C19.6207 31.9763 19.6207 31.8257 19.696 31.449C19.8467 31.0723 19.9973 30.7333 20.148 30.432C20.374 30.0553 20.5247 29.7163 20.6 29.415C20.6753 29.2643 20.7507 29.0383 20.826 28.737C20.9767 28.4357 21.1273 28.285 21.278 28.285C21.278 28.2097 21.2403 28.172 21.165 28.172C21.165 28.0967 21.165 28.0213 21.165 27.946C21.165 27.72 21.2403 27.607 21.391 27.607C21.5417 27.5317 21.73 27.2303 21.956 26.703C21.956 26.5523 21.9183 26.5147 21.843 26.59C21.843 26.59 21.843 26.5147 21.843 26.364C21.9937 26.2133 22.1443 25.9497 22.295 25.573C22.4457 25.1963 22.5963 24.9327 22.747 24.782L22.634 25.234C22.7847 25.234 22.86 25.0833 22.86 24.782C22.86 24.7067 22.8223 24.6313 22.747 24.556C22.8223 24.556 22.9353 24.4807 23.086 24.33L23.199 24.217C23.199 24.3677 23.1613 24.443 23.086 24.443C23.086 24.443 23.086 24.4807 23.086 24.556C23.4627 24.1793 23.651 23.765 23.651 23.313C23.5757 23.1623 23.538 23.087 23.538 23.087C23.538 22.861 23.5757 22.7103 23.651 22.635C23.8017 22.5597 23.877 22.4467 23.877 22.296C23.3497 22.4467 22.86 22.974 22.408 23.878C22.0313 24.782 21.6547 25.5353 21.278 26.138C21.3533 26.0627 21.391 25.9873 21.391 25.912C21.391 25.8367 21.3533 25.799 21.278 25.799V26.138C21.2027 26.4393 21.0897 26.6653 20.939 26.816C20.8637 26.9667 20.7507 27.1173 20.6 27.268C20.7507 26.816 20.826 26.5523 20.826 26.477L20.713 26.364C20.6377 26.7407 20.5247 27.0797 20.374 27.381C20.2233 27.607 20.0727 27.9083 19.922 28.285C19.922 28.737 19.8467 29.0383 19.696 29.189C19.696 29.0383 19.583 28.963 19.357 28.963C19.357 29.0383 19.357 29.1137 19.357 29.189C19.4323 29.2643 19.47 29.3773 19.47 29.528L19.922 28.85C19.696 29.1513 19.5077 29.5657 19.357 30.093H19.583C19.4323 30.1683 19.2817 30.319 19.131 30.545C18.9803 30.6957 18.905 30.9217 18.905 31.223C18.9803 31.3737 19.018 31.449 19.018 31.449L18.792 32.127V32.24C18.8673 32.0893 19.018 31.8633 19.244 31.562C19.47 31.1853 19.696 30.7333 19.922 30.206C19.922 30.432 19.809 30.8463 19.583 31.449C19.4323 32.0517 19.357 32.2777 19.357 32.127C18.9803 32.127 18.792 32.2777 18.792 32.579V32.127C18.4907 32.805 18.1893 33.483 17.888 34.161C17.5867 34.7637 17.436 35.3287 17.436 35.856H17.549C17.549 35.9313 17.5113 36.0067 17.436 36.082C17.436 36.082 17.436 36.1197 17.436 36.195V35.969V36.082V36.195V36.421V36.195C17.21 36.195 16.984 36.534 16.758 37.212C16.6073 37.8147 16.532 38.4173 16.532 39.02V39.133C16.532 39.2083 16.645 39.246 16.871 39.246C16.4943 39.3967 16.2683 39.585 16.193 39.811C16.193 40.037 16.193 40.3383 16.193 40.715C16.193 40.8657 16.2307 40.941 16.306 40.941C16.6073 40.037 16.984 39.02 17.436 37.89C17.9633 36.6847 18.227 35.6677 18.227 34.839C18.0763 35.065 18.001 35.178 18.001 35.178C18.001 35.178 17.9257 35.2157 17.775 35.291C17.775 35.1403 17.8503 34.9143 18.001 34.613C18.0763 34.613 18.1517 34.5753 18.227 34.5L18.114 34.387ZM23.538 27.155C23.6887 26.929 23.8017 26.703 23.877 26.477C23.9523 26.1757 24.1407 25.9497 24.442 25.799C24.442 25.4223 24.329 25.1587 24.103 25.008C23.7263 25.6107 23.3873 26.3263 23.086 27.155C22.7847 27.9083 22.4457 28.624 22.069 29.302V29.076C21.9937 29.0007 21.956 28.9253 21.956 28.85C21.956 29.076 21.8807 29.2643 21.73 29.415C21.5793 29.5657 21.4287 29.6787 21.278 29.754H21.391C21.5417 29.8293 21.617 29.867 21.617 29.867H21.73V29.98C21.73 30.0553 21.73 30.093 21.73 30.093C21.8053 30.093 21.843 30.1307 21.843 30.206C21.7677 30.206 21.6547 30.3567 21.504 30.658C21.3533 30.9593 21.2027 31.2983 21.052 31.675C20.9013 32.0517 20.7507 32.4283 20.6 32.805C20.4493 33.1063 20.3363 33.257 20.261 33.257C20.1857 33.4077 20.1103 33.6337 20.035 33.935C20.035 34.161 19.922 34.3493 19.696 34.5C19.8467 34.3493 19.9597 34.161 20.035 33.935C20.1103 33.709 20.148 33.5207 20.148 33.37C20.0727 33.5207 20.035 33.596 20.035 33.596C19.9597 33.596 19.922 33.5583 19.922 33.483L19.696 33.935C19.7713 34.0103 19.809 34.0857 19.809 34.161C19.809 34.387 19.6583 34.5 19.357 34.5C19.357 34.726 19.244 34.9897 19.018 35.291C19.018 35.3663 19.018 35.4417 19.018 35.517C19.0933 35.5923 19.131 35.6677 19.131 35.743C19.131 35.8183 19.0933 35.856 19.018 35.856V35.517C18.8673 35.743 18.792 35.969 18.792 36.195C18.9427 36.195 19.131 36.082 19.357 35.856L18.227 39.585C18.3777 39.585 18.5283 39.246 18.679 38.568C18.905 37.8147 19.0557 37.3627 19.131 37.212C19.2063 37.212 19.244 37.2497 19.244 37.325C19.3947 37.2497 19.47 37.212 19.47 37.212C19.47 37.664 19.357 38.0783 19.131 38.455C18.905 38.7563 18.792 39.1707 18.792 39.698C19.3193 38.4927 19.7713 37.325 20.148 36.195C20.5247 34.9897 21.0143 33.596 21.617 32.014L21.391 32.127C21.391 32.0517 21.3533 32.014 21.278 32.014C21.278 31.9387 21.278 31.8257 21.278 31.675C21.3533 31.5243 21.4663 31.449 21.617 31.449C21.5417 31.5997 21.504 31.675 21.504 31.675C21.6547 31.675 21.73 31.6373 21.73 31.562V31.449H21.843C21.7677 31.5243 21.73 31.5997 21.73 31.675C21.8807 31.675 21.956 31.5243 21.956 31.223C21.956 30.8463 22.1443 30.5073 22.521 30.206H22.408C22.5587 29.754 22.7847 29.302 23.086 28.85C23.4627 28.3227 23.7263 27.7953 23.877 27.268H23.651C23.651 27.1927 23.6133 27.155 23.538 27.155ZM19.922 27.155C19.922 27.2303 19.8843 27.3057 19.809 27.381C19.809 27.381 19.809 27.4563 19.809 27.607C19.809 27.6823 19.8467 27.6823 19.922 27.607C20.0727 27.4563 20.1103 27.3057 20.035 27.155C20.3363 26.7783 20.6377 26.364 20.939 25.912C21.2403 25.3847 21.391 24.895 21.391 24.443C21.391 24.3677 21.3533 24.2923 21.278 24.217V24.443C21.2027 24.5937 21.165 24.669 21.165 24.669V24.556C20.7883 25.0833 20.487 25.686 20.261 26.364C20.035 26.9667 19.922 27.2303 19.922 27.155ZM17.549 32.127C17.549 32.353 17.5113 32.579 17.436 32.805C17.436 33.031 17.436 33.2193 17.436 33.37L18.001 32.24C18.1517 31.8633 18.2647 31.5243 18.34 31.223C18.4907 30.8463 18.6037 30.545 18.679 30.319H18.566L18.453 30.206C18.3023 30.5073 18.114 30.9217 17.888 31.449C17.7373 31.901 17.6243 32.127 17.549 32.127ZM40.714 61.168C40.7893 61.168 40.827 61.2057 40.827 61.281L40.375 56.874L40.149 57.326L40.262 57.213C40.3373 57.213 40.375 57.2507 40.375 57.326V57.439H40.262C40.3373 57.5897 40.375 57.8533 40.375 58.23V58.569C40.375 58.4937 40.3373 58.456 40.262 58.456C40.262 58.456 40.262 58.4183 40.262 58.343V58.795C40.262 59.1717 40.262 59.5483 40.262 59.925C40.3373 60.2263 40.4503 60.4523 40.601 60.603V60.264C40.6763 60.4147 40.714 60.5653 40.714 60.716C40.8647 60.8667 40.8647 61.0173 40.714 61.168ZM39.923 54.162C39.8477 54.2373 39.81 54.3127 39.81 54.388C39.81 54.4633 39.81 54.5763 39.81 54.727C39.8853 54.8023 39.923 54.9153 39.923 55.066V56.083C39.923 56.2337 39.9607 56.3467 40.036 56.422V55.857C40.1113 56.0077 40.1113 56.2337 40.036 56.535C40.036 56.761 40.0737 56.874 40.149 56.874C40.149 56.648 40.149 56.422 40.149 56.196C40.2243 55.97 40.2243 55.7063 40.149 55.405C40.149 54.8023 40.1113 54.2373 40.036 53.71C39.9607 53.1073 39.8477 52.6177 39.697 52.241C39.7723 52.6177 39.7723 52.9567 39.697 53.258C39.697 53.5593 39.7723 53.71 39.923 53.71C39.8477 53.71 39.81 53.7853 39.81 53.936C39.81 54.0113 39.8477 54.0867 39.923 54.162ZM21.843 23.878H21.956C21.8053 24.33 21.617 24.7443 21.391 25.121C21.2403 25.4977 21.0897 25.912 20.939 26.364C21.3157 25.5353 21.73 24.7067 22.182 23.878C22.7093 23.0493 23.199 22.296 23.651 21.618C23.2743 21.9947 22.9353 22.4467 22.634 22.974C22.3327 23.5013 22.069 23.765 21.843 23.765V23.878ZM19.922 33.031C20.148 32.579 20.261 32.5037 20.261 32.805C20.4117 32.805 20.4493 32.7297 20.374 32.579C20.374 32.4283 20.4493 32.353 20.6 32.353C20.6 32.2023 20.487 32.127 20.261 32.127C20.1857 32.127 20.148 32.0893 20.148 32.014C20.2233 31.8633 20.261 31.7503 20.261 31.675C20.261 31.5243 20.3363 31.3737 20.487 31.223C20.035 31.675 19.809 32.1647 19.809 32.692C19.809 32.7673 19.809 32.8427 19.809 32.918C19.8843 32.918 19.922 32.9557 19.922 33.031ZM40.827 63.654C40.827 63.1267 40.7517 62.637 40.601 62.185C40.5257 61.733 40.4127 61.2433 40.262 60.716C40.3373 61.2433 40.375 61.7707 40.375 62.298C40.4503 62.75 40.601 63.202 40.827 63.654ZM22.521 29.528C22.3703 29.8293 22.2197 30.1307 22.069 30.432C21.9183 30.7333 21.7677 31.0723 21.617 31.449C21.7677 31.0723 21.9183 30.5827 22.069 29.98C22.295 29.302 22.5587 28.8123 22.86 28.511L22.521 29.641V29.528ZM21.504 28.285C21.73 27.7577 22.1067 27.1173 22.634 26.364H22.521C22.5963 26.2133 22.634 26.138 22.634 26.138C22.5587 26.138 22.4833 26.1757 22.408 26.251C22.408 26.3263 22.3327 26.364 22.182 26.364C22.182 26.2133 22.2573 26.0627 22.408 25.912C22.5587 25.7613 22.634 25.6107 22.634 25.46L21.956 26.364H22.069V26.477C22.1443 26.6277 22.182 26.703 22.182 26.703L21.504 28.285ZM18.792 29.641C18.6413 29.7917 18.566 29.9423 18.566 30.093C18.566 30.1683 18.6037 30.206 18.679 30.206V30.319V30.206C18.7543 29.8293 18.905 29.4527 19.131 29.076C19.4323 28.6993 19.583 28.285 19.583 27.833C19.4323 28.1343 19.2817 28.4733 19.131 28.85C19.0557 29.1513 18.9427 29.4527 18.792 29.754V29.641ZM20.713 28.85C20.713 28.9253 20.6753 29.0007 20.6 29.076C20.6 29.1513 20.6 29.2643 20.6 29.415V29.302C20.6 29.4527 20.487 29.528 20.261 29.528V28.963C20.3363 29.0383 20.4117 29.076 20.487 29.076C20.487 29.076 20.5623 29.0007 20.713 28.85ZM41.053 62.976C40.9777 62.75 40.94 62.524 40.94 62.298C40.94 61.9967 40.94 61.733 40.94 61.507C40.94 61.733 40.9023 61.959 40.827 62.185C40.827 62.3357 40.8647 62.4863 40.94 62.637C40.94 62.7877 40.9777 62.9007 41.053 62.976ZM17.097 37.438C17.097 37.2873 17.1347 37.1367 17.21 36.986C17.2853 36.76 17.3607 36.5717 17.436 36.421L17.549 36.534C17.323 36.6847 17.21 36.873 17.21 37.099C17.2853 37.325 17.2477 37.438 17.097 37.438ZM20.261 33.935C20.261 33.7843 20.261 33.6713 20.261 33.596C20.3363 33.5207 20.374 33.4453 20.374 33.37C20.374 33.4453 20.374 33.5207 20.374 33.596C20.4493 33.596 20.487 33.6337 20.487 33.709C20.487 33.8597 20.4117 33.935 20.261 33.935ZM18.792 33.031C18.7167 33.1817 18.679 33.2947 18.679 33.37C18.679 33.37 18.6037 33.4453 18.453 33.596C18.453 33.2193 18.566 33.031 18.792 33.031ZM20.487 27.72V27.833C20.487 27.9083 20.5247 27.9837 20.6 28.059C20.4493 28.059 20.2987 28.2097 20.148 28.511L20.487 27.72ZM40.714 61.733C40.714 61.5823 40.7893 61.507 40.94 61.507C40.8647 61.4317 40.827 61.3563 40.827 61.281C40.7517 61.3563 40.714 61.507 40.714 61.733ZM19.357 34.5L19.47 34.387C19.47 34.3117 19.4323 34.274 19.357 34.274V34.5ZM39.923 54.501V54.162V54.501ZM20.487 27.72C20.487 27.5693 20.487 27.494 20.487 27.494C20.5623 27.4187 20.6 27.3433 20.6 27.268C20.6 27.3433 20.5623 27.4187 20.487 27.494C20.487 27.494 20.487 27.5693 20.487 27.72ZM20.261 33.257C20.261 33.3323 20.2987 33.37 20.374 33.37L20.261 33.257ZM21.843 29.528V29.641V29.528ZM21.843 29.528L22.069 29.302C21.9183 29.4527 21.843 29.528 21.843 29.528ZM17.549 36.195H17.436H17.549ZM102.771 65.123C102.621 65.349 102.395 65.801 102.093 66.479C101.792 67.0817 101.528 67.383 101.302 67.383C101.302 67.2323 101.189 67.3077 100.963 67.609C100.737 67.835 100.624 68.061 100.624 68.287C100.398 68.6637 100.248 68.965 100.172 69.191C100.097 69.3417 99.984 69.53 99.8333 69.756C99.9086 69.756 99.871 69.869 99.7203 70.095C99.5696 70.321 99.4566 70.3963 99.3813 70.321C99.306 70.4717 99.193 70.66 99.0423 70.886C98.8916 71.112 98.741 71.3003 98.5903 71.451C97.9123 72.2043 97.3096 72.92 96.7823 73.598C96.3303 74.2007 95.8783 74.728 95.4263 75.18C95.0496 75.632 94.786 75.8957 94.6353 75.971C94.4093 76.1217 94.1833 76.2347 93.9573 76.31C93.7313 76.3853 93.5053 76.6113 93.2793 76.988C92.6766 77.666 92.1493 78.0803 91.6973 78.231C91.2453 78.3817 90.605 78.6453 89.7763 79.022C88.797 79.248 88.1943 79.361 87.9683 79.361C87.7423 79.2857 87.554 79.248 87.4033 79.248C85.8966 79.7753 84.4653 79.474 83.1093 78.344C81.8286 77.214 80.9246 75.971 80.3973 74.615C80.0206 73.711 79.7193 72.5433 79.4933 71.112C79.3426 69.6807 79.2296 68.174 79.1543 66.592C79.079 64.9347 79.0413 63.315 79.0413 61.733C79.1166 60.0757 79.192 58.569 79.2673 57.213C79.1166 57.3637 79.0036 57.5897 78.9283 57.891C78.853 58.117 78.8153 58.2677 78.8153 58.343C78.3633 59.7743 77.723 61.4317 76.8943 63.315C76.0656 65.123 75.1616 66.8933 74.1823 68.626C73.2783 70.2833 72.412 71.677 71.5833 72.807C70.7546 73.937 70.152 74.4643 69.7753 74.389C69.3986 74.7657 69.0973 75.1423 68.8713 75.519C68.7206 75.8203 68.457 76.084 68.0803 76.31C66.4983 77.0633 64.9163 76.875 63.3343 75.745C62.5056 75.1423 61.903 74.4267 61.5263 73.598C61.225 72.7693 61.0743 71.8653 61.0743 70.886C61.3003 67.3453 62.016 64.0307 63.2213 60.942C64.502 57.778 65.8956 54.9907 67.4023 52.58C68.5323 50.8473 69.813 49.1523 71.2443 47.495C72.751 45.8377 74.5966 44.4817 76.7813 43.427C77.9866 42.8243 79.4556 42.7113 81.1883 43.088C82.921 43.3893 84.39 43.879 85.5953 44.557C86.1226 44.8583 86.3486 45.122 86.2733 45.348C86.198 45.574 86.1603 45.7247 86.1603 45.8C85.859 46.252 85.4823 46.4027 85.0303 46.252C85.0303 46.6287 85.1056 46.8547 85.2563 46.93C85.407 46.93 85.4823 47.0807 85.4823 47.382C85.407 47.7587 85.3316 48.0223 85.2563 48.173C85.2563 48.3237 85.2563 48.5873 85.2563 48.964C85.2563 49.1147 85.2563 49.2653 85.2563 49.416C85.2563 49.4913 85.2186 49.868 85.1433 50.546C85.1433 52.354 85.1433 54.5763 85.1433 57.213C85.1433 59.7743 85.181 62.3357 85.2563 64.897C85.3316 67.383 85.4446 69.643 85.5953 71.677C85.8213 73.711 86.085 75.067 86.3863 75.745C86.763 76.0463 87.441 75.8203 88.4203 75.067C89.3996 74.2383 90.492 73.146 91.6973 71.79C92.9026 70.434 94.1833 68.8897 95.5393 67.157C96.9706 65.4243 98.289 63.767 99.4943 62.185C100.7 60.5277 101.754 59.021 102.658 57.665C103.638 56.309 104.316 55.3297 104.692 54.727C104.918 54.4257 105.144 54.0867 105.37 53.71C105.672 53.258 105.935 52.919 106.161 52.693C106.463 52.467 106.689 52.3917 106.839 52.467C107.065 52.467 107.254 52.7307 107.404 53.258C107.48 53.484 107.593 53.6723 107.743 53.823C107.894 53.9737 108.007 54.2373 108.082 54.614C108.308 55.8193 108.158 57.0247 107.63 58.23L107.178 59.247C106.726 59.3977 106.538 59.586 106.613 59.812C106.764 59.9627 106.613 60.264 106.161 60.716C106.011 61.0927 105.785 61.4317 105.483 61.733C105.257 61.959 105.069 62.2227 104.918 62.524V62.298C105.069 61.9967 105.22 61.7707 105.37 61.62C105.22 61.62 105.22 61.4693 105.37 61.168C105.295 61.3187 105.22 61.4317 105.144 61.507C105.069 61.507 104.994 61.5447 104.918 61.62C104.918 61.6953 104.881 61.8083 104.805 61.959C104.73 62.0343 104.692 61.9967 104.692 61.846L103.675 63.315C103.223 63.767 102.922 64.1437 102.771 64.445C102.696 64.671 102.395 65.0853 101.867 65.688L101.98 65.801C102.131 65.6503 102.244 65.462 102.319 65.236C102.47 65.01 102.658 64.897 102.884 64.897V65.01L102.771 65.123ZM67.4023 72.468C67.553 72.6187 67.666 72.581 67.7413 72.355C69.8506 68.4377 71.8093 64.784 73.6173 61.394C75.4253 58.004 77.4216 54.3127 79.6063 50.32C79.6816 49.868 79.9453 49.303 80.3973 48.625C80.9246 47.947 81.3013 47.5327 81.5273 47.382C80.9246 47.7587 80.2466 48.3237 79.4933 49.077C78.74 49.8303 77.9866 50.6967 77.2333 51.676C76.5553 52.6553 75.8396 53.71 75.0863 54.84C74.4083 55.97 73.8056 57.1 73.2783 58.23C72.1483 60.4147 71.0183 62.8253 69.8883 65.462C68.8336 68.0987 68.005 70.434 67.4023 72.468ZM76.1033 34.5C76.254 34.5 76.4046 34.5753 76.5553 34.726C76.706 34.726 76.7813 34.726 76.7813 34.726C76.8566 34.6507 76.932 34.613 77.0073 34.613C77.6853 34.613 78.175 34.9897 78.4763 35.743C78.853 36.4963 79.1166 37.0613 79.2673 37.438C79.1166 38.2667 78.7023 38.907 78.0243 39.359C77.3463 39.359 76.593 39.1707 75.7643 38.794C75.011 38.4173 74.6343 37.777 74.6343 36.873C74.6343 36.4963 74.785 36.0067 75.0863 35.404C75.3876 34.8013 75.7266 34.5 76.1033 34.5ZM83.6743 39.811V39.698L83.5613 39.585C83.4106 39.6603 83.3353 39.698 83.3353 39.698C82.7326 39.698 82.2806 39.3967 81.9793 38.794C81.7533 38.116 81.6403 37.8147 81.6403 37.89C81.6403 37.664 81.6026 37.438 81.5273 37.212C81.452 36.986 81.4143 36.76 81.4143 36.534C81.4143 35.7053 81.678 35.178 82.2053 34.952C82.808 34.6507 83.1846 34.5 83.3353 34.5C83.8626 34.5 84.39 34.8013 84.9173 35.404C85.4446 36.0067 85.7083 36.534 85.7083 36.986C85.7083 37.8147 85.4823 38.4173 85.0303 38.794C84.6536 39.0953 84.2016 39.4343 83.6743 39.811ZM99.7203 65.914C99.5696 65.8387 99.6073 65.7257 99.8333 65.575C100.135 65.349 100.285 65.1983 100.285 65.123C100.361 65.0477 100.398 64.897 100.398 64.671C100.398 64.5957 100.361 64.558 100.285 64.558L100.059 64.784C99.8333 65.01 99.6826 65.1983 99.6073 65.349C99.8333 65.123 99.9086 65.0853 99.8333 65.236C99.758 65.3113 99.645 65.4997 99.4943 65.801C99.5696 65.6503 99.419 65.8763 99.0423 66.479C98.6656 67.0063 98.3643 67.4583 98.1383 67.835H98.2513C98.176 67.9103 98.1383 67.948 98.1383 67.948C98.289 67.948 98.4773 67.7973 98.7033 67.496C99.0046 67.1193 99.1176 66.8557 99.0423 66.705C99.0423 66.705 99.1553 66.705 99.3813 66.705C99.532 66.4037 99.6073 66.253 99.6073 66.253C99.6826 66.1777 99.7203 66.0647 99.7203 65.914ZM99.7203 67.609C99.9463 67.4583 100.097 67.3077 100.172 67.157C100.248 67.0063 100.361 66.8557 100.511 66.705C100.662 66.3283 100.737 66.1777 100.737 66.253C100.737 66.253 100.662 66.1777 100.511 66.027C100.361 66.1777 100.172 66.4037 99.9463 66.705C99.7203 66.931 99.532 67.2323 99.3813 67.609C99.306 67.4583 99.2683 67.4207 99.2683 67.496C99.2683 67.5713 99.2306 67.609 99.1553 67.609H99.0423V67.722L99.2683 67.948V68.061C99.3436 68.061 99.419 67.948 99.4943 67.722C99.645 67.4207 99.758 67.27 99.8333 67.27L99.7203 67.609ZM75.6513 60.377V60.264L75.5383 60.151C75.463 60.2263 75.4253 60.264 75.4253 60.264L75.8773 59.586V59.36C75.7266 59.5107 75.6513 59.6237 75.6513 59.699C75.6513 59.6237 75.576 59.586 75.4253 59.586C75.4253 59.4353 75.3876 59.5107 75.3123 59.812C75.237 60.038 75.124 60.264 74.9733 60.49C74.9733 60.49 75.124 60.4147 75.4253 60.264L75.1993 60.603L74.1823 61.733C74.333 61.8083 74.4083 61.8083 74.4083 61.733C74.4836 61.5823 74.6343 61.5447 74.8603 61.62L75.6513 60.377ZM99.0423 69.982C99.2683 69.6053 99.4943 69.3793 99.7203 69.304C99.5696 69.1533 99.5696 69.0403 99.7203 68.965C99.871 68.8897 99.871 68.7767 99.7203 68.626L99.6073 68.739C99.758 68.513 99.8333 68.4 99.8333 68.4C99.9086 68.3247 99.9463 68.1363 99.9463 67.835C99.7956 68.2117 99.6073 68.513 99.3813 68.739C99.1553 68.965 98.967 69.1533 98.8163 69.304C98.967 69.3793 98.967 69.4923 98.8163 69.643C98.6656 69.7183 98.741 69.8313 99.0423 69.982C98.8163 69.982 98.7033 70.0573 98.7033 70.208C98.5526 70.208 98.5526 70.321 98.7033 70.547L99.0423 69.982ZM104.579 62.411V62.524H104.918C104.692 62.75 104.579 62.9383 104.579 63.089C104.579 63.2397 104.429 63.3527 104.127 63.428C104.278 63.428 104.278 63.5033 104.127 63.654C103.977 63.7293 103.901 63.7293 103.901 63.654C103.977 63.8047 103.977 63.9177 103.901 63.993C103.826 64.0683 103.751 64.0683 103.675 63.993C103.675 63.9177 103.713 63.767 103.788 63.541C103.939 63.315 104.203 62.9383 104.579 62.411ZM99.7203 64.671C99.871 64.8217 100.022 64.671 100.172 64.219C100.398 63.767 100.549 63.5033 100.624 63.428C100.474 63.3527 100.248 63.5033 99.9463 63.88C99.7203 64.2567 99.645 64.5203 99.7203 64.671ZM100.963 62.75C100.963 62.8253 101.001 62.9007 101.076 62.976C101.152 63.0513 101.152 63.1267 101.076 63.202C101.076 63.2773 101.302 63.1267 101.754 62.75C102.206 62.298 102.395 62.1097 102.319 62.185C102.244 62.1097 102.169 62.072 102.093 62.072C101.867 62.072 101.754 62.1097 101.754 62.185C101.528 62.411 101.415 62.5993 101.415 62.75H100.963ZM76.7813 57.326C76.932 57.1 77.0073 56.9117 77.0073 56.761C77.0826 56.535 77.2333 56.309 77.4593 56.083V55.857C77.384 55.9323 77.3463 56.0077 77.3463 56.083C77.271 56.1583 77.1956 56.196 77.1203 56.196C77.045 56.196 77.0073 56.2337 77.0073 56.309C77.0073 56.3843 76.9696 56.3843 76.8943 56.309C76.819 56.4597 76.7813 56.5727 76.7813 56.648C76.8566 56.648 76.819 56.7987 76.6683 57.1V57.213C76.6683 57.2883 76.706 57.326 76.7813 57.326ZM76.3293 61.846C76.5553 61.9967 76.706 61.959 76.7813 61.733C76.932 61.4317 77.045 61.2433 77.1203 61.168C76.9696 61.2433 76.819 61.3563 76.6683 61.507C76.593 61.6577 76.48 61.7707 76.3293 61.846ZM98.5903 68.739C98.8163 68.8143 99.0046 68.7013 99.1553 68.4L98.9293 68.174C98.7786 68.3247 98.7033 68.4377 98.7033 68.513C98.7033 68.5883 98.6656 68.6637 98.5903 68.739ZM76.5553 58.456C76.6306 58.3807 76.706 58.343 76.7813 58.343C76.932 58.343 77.045 58.2677 77.1203 58.117L76.8943 58.004C76.9696 58.004 77.045 57.9663 77.1203 57.891L77.3463 57.665C77.045 57.7403 76.819 57.9287 76.6683 58.23C76.6683 58.3053 76.6306 58.3807 76.5553 58.456ZM76.1033 61.733C76.1786 61.5823 76.2916 61.4693 76.4423 61.394C76.593 61.2433 76.706 61.0927 76.7813 60.942L75.9903 61.62L76.1033 61.733ZM75.8773 61.394L75.9903 61.281C76.141 61.1303 76.254 61.055 76.3293 61.055C76.3293 60.9797 76.2916 60.942 76.2163 60.942C76.2163 60.8667 76.2163 60.7913 76.2163 60.716C76.367 60.49 76.367 60.49 76.2163 60.716C76.0656 60.942 75.915 61.168 75.7643 61.394H75.8773ZM100.963 67.157C101.039 67.0063 101.076 66.931 101.076 66.931C101.227 66.7803 101.34 66.6297 101.415 66.479C101.566 66.3283 101.679 66.1777 101.754 66.027L101.076 66.705C101.076 66.7803 101.039 66.8557 100.963 66.931C100.963 67.0063 100.963 67.0817 100.963 67.157ZM78.7023 53.936C78.853 54.0867 79.079 53.8607 79.3803 53.258L79.2673 53.371C79.1166 53.5217 79.0413 53.5593 79.0413 53.484L78.7023 53.936ZM74.4083 63.428C74.4836 63.428 74.559 63.3527 74.6343 63.202C74.8603 62.976 74.898 62.863 74.7473 62.863C74.672 62.863 74.5966 62.9007 74.5213 62.976C74.5213 63.202 74.4836 63.3527 74.4083 63.428ZM74.8603 60.264C74.6343 60.49 74.5213 60.603 74.5213 60.603V60.829C74.5213 60.829 74.6343 60.716 74.8603 60.49C74.8603 60.3393 74.8603 60.264 74.8603 60.264ZM75.0863 61.846C75.237 61.7707 75.3123 61.733 75.3123 61.733V61.62C75.5383 61.394 75.5383 61.281 75.3123 61.281C75.3123 61.4317 75.237 61.62 75.0863 61.846ZM98.3643 68.965C98.515 68.965 98.5903 68.965 98.5903 68.965V68.739L98.3643 68.965ZM73.9563 62.072C74.0316 62.072 74.107 62.0343 74.1823 61.959V61.846C74.0316 61.9967 73.9563 62.072 73.9563 62.072ZM105.483 61.394C105.408 61.4693 105.37 61.507 105.37 61.507V61.62C105.446 61.5447 105.483 61.4693 105.483 61.394ZM109.111 85.35C109.035 85.4253 108.96 85.5007 108.885 85.576C108.809 85.6513 108.772 85.802 108.772 86.028C108.772 86.4047 108.772 86.706 108.772 86.932C108.847 87.158 108.922 87.4593 108.998 87.836C108.621 87.61 108.433 87.384 108.433 87.158C108.433 86.8567 108.244 86.706 107.868 86.706L108.094 87.497C108.094 87.5723 108.018 87.5723 107.868 87.497C107.792 87.4217 107.717 87.3087 107.642 87.158C107.642 87.3087 107.604 87.4217 107.529 87.497C107.529 87.5723 107.529 87.6853 107.529 87.836C107.453 87.836 107.34 87.723 107.19 87.497C107.039 87.271 106.888 87.045 106.738 86.819C106.662 86.5177 106.549 86.254 106.399 86.028C106.323 85.7267 106.248 85.5383 106.173 85.463C106.173 85.9903 106.173 86.4423 106.173 86.819C106.173 87.1957 106.248 87.61 106.399 88.062C106.248 88.062 106.097 87.9113 105.947 87.61C105.871 87.2333 105.796 86.8567 105.721 86.48C105.645 86.028 105.57 85.6137 105.495 85.237C105.495 84.8603 105.457 84.6343 105.382 84.559C105.306 84.4837 105.231 84.5967 105.156 84.898C105.156 85.124 105.118 85.3877 105.043 85.689C105.043 85.9903 105.043 86.2917 105.043 86.593C105.043 86.819 105.043 86.932 105.043 86.932C104.892 86.932 104.779 86.7813 104.704 86.48C104.628 86.1033 104.553 85.7267 104.478 85.35C104.402 84.898 104.327 84.333 104.252 83.655C104.026 83.9563 103.913 84.559 103.913 85.463C103.536 85.3123 103.31 84.9357 103.235 84.333C103.235 83.7303 103.122 83.429 102.896 83.429C102.745 83.429 102.67 83.768 102.67 84.446C102.67 85.124 102.632 85.463 102.557 85.463C102.406 85.463 102.255 85.011 102.105 84.107C101.954 83.1277 101.803 81.9977 101.653 80.717C101.577 79.4363 101.502 78.1933 101.427 76.988C101.427 75.7073 101.427 74.728 101.427 74.05C101.427 73.6733 101.427 73.259 101.427 72.807C101.502 72.355 101.54 71.9407 101.54 71.564C101.841 67.722 102.105 64.0683 102.331 60.603C102.557 57.1377 102.82 53.71 103.122 50.32C103.423 46.93 103.724 43.54 104.026 40.15C104.327 36.6847 104.704 33.1063 105.156 29.415H104.365C103.611 29.415 102.783 29.3773 101.879 29.302C100.975 29.1513 100.146 28.9253 99.3928 28.624C98.6394 28.3227 97.9991 27.9837 97.4718 27.607C97.0198 27.155 96.7938 26.59 96.7938 25.912C96.7938 25.686 97.1328 25.5353 97.8108 25.46C98.5641 25.3093 99.4304 25.1963 100.41 25.121C101.464 25.0457 102.481 25.008 103.461 25.008C104.44 24.9327 105.231 24.895 105.834 24.895C106.06 24.1417 106.248 23.087 106.399 21.731C106.625 20.375 106.851 18.9437 107.077 17.437C107.303 15.9303 107.529 14.4237 107.755 12.917C108.056 11.4103 108.357 10.1673 108.659 9.188C109.035 7.98266 109.713 7.19166 110.693 6.81499C111.672 6.43833 112.689 6.24999 113.744 6.24999C114.196 6.24999 114.798 6.28766 115.552 6.363C116.38 6.43833 117.171 6.589 117.925 6.81499C118.678 6.96566 119.318 7.22933 119.846 7.606C120.448 7.98266 120.75 8.43466 120.75 8.962C120.75 9.33867 120.674 9.67767 120.524 9.979C120.674 10.5063 120.75 11.0713 120.75 11.674C120.75 12.2767 120.75 12.917 120.75 13.595C120.75 16.1563 120.599 18.341 120.298 20.149C120.072 21.957 119.883 23.652 119.733 25.234C121.541 25.234 123.424 25.347 125.383 25.573C127.417 25.799 129.036 26.4017 130.242 27.381C129.94 27.381 129.601 27.5693 129.225 27.946C128.848 28.3227 128.471 28.511 128.095 28.511C128.17 28.511 128.245 28.5487 128.321 28.624C128.396 28.6993 128.434 28.7747 128.434 28.85C128.434 28.85 128.471 28.8877 128.547 28.963C128.095 28.963 127.417 29.0007 126.513 29.076C125.609 29.076 124.667 29.1137 123.688 29.189C122.708 29.2643 121.767 29.3397 120.863 29.415C120.034 29.415 119.469 29.4527 119.168 29.528C118.565 34.8767 117.962 39.924 117.36 44.67C116.832 49.416 116.267 54.049 115.665 58.569C115.062 63.089 114.422 67.6467 113.744 72.242C113.141 76.8373 112.501 81.6587 111.823 86.706C111.747 86.932 111.672 87.158 111.597 87.384C111.521 87.5347 111.484 87.6853 111.484 87.836C111.408 87.9113 111.333 87.7607 111.258 87.384C111.182 86.932 111.032 86.4423 110.806 85.915C110.806 86.2917 110.768 86.6683 110.693 87.045C110.693 87.4217 110.693 87.7607 110.693 88.062C110.391 87.9867 110.052 87.6853 109.676 87.158C109.299 86.6307 109.111 86.028 109.111 85.35ZM135.838 43.088C138.55 43.992 140.923 45.3103 142.957 47.043C144.991 48.7757 146.498 50.885 147.477 53.371C148.532 55.7817 149.021 58.456 148.946 61.394C148.871 64.332 148.155 67.4207 146.799 70.66C146.799 71.112 146.686 71.451 146.46 71.677C146.234 71.9783 146.083 72.242 146.008 72.468C145.933 72.6187 145.744 72.807 145.443 73.033V73.259C145.292 73.6357 145.066 73.9747 144.765 74.276C144.539 74.5773 144.313 74.8787 144.087 75.18C144.162 75.5567 144.087 75.7827 143.861 75.858C143.71 75.9333 143.597 76.0463 143.522 76.197C143.371 76.3477 143.334 76.4607 143.409 76.536C143.484 76.6113 143.447 76.6867 143.296 76.762H142.731C142.58 76.762 142.505 76.8373 142.505 76.988V77.214C142.354 77.214 142.091 77.4023 141.714 77.779L140.697 78.344L139.567 79.022C139.416 79.0973 139.228 79.1727 139.002 79.248C138.851 79.248 138.776 79.361 138.776 79.587C138.55 79.587 138.324 79.6623 138.098 79.813C137.947 79.8883 137.759 79.926 137.533 79.926H136.968C136.817 79.926 136.667 79.9637 136.516 80.039C136.365 80.1143 136.215 80.152 136.064 80.152C135.913 80.152 135.763 80.1143 135.612 80.039C135.537 79.9637 135.386 79.926 135.16 79.926C135.085 79.926 134.972 80.0013 134.821 80.152C134.746 80.2273 134.633 80.265 134.482 80.265C134.256 80.3403 134.068 80.378 133.917 80.378H133.239C132.862 80.2273 132.523 80.152 132.222 80.152C131.996 80.152 131.619 80.152 131.092 80.152C130.941 80.4533 130.866 80.7547 130.866 81.056C130.866 81.282 130.828 81.5833 130.753 81.96C130.753 82.2613 130.715 82.5627 130.64 82.864C130.565 83.09 130.527 83.3537 130.527 83.655L130.301 85.463C130.301 86.2163 130.15 86.7437 129.849 87.045C129.774 87.4217 129.548 87.6853 129.171 87.836C128.87 88.1373 128.757 88.401 128.832 88.627C128.983 88.7777 128.832 88.966 128.38 89.192C128.079 89.0413 127.928 88.853 127.928 88.627C127.702 88.627 127.589 88.7023 127.589 88.853C127.589 89.0037 127.514 89.1543 127.363 89.305C127.212 89.305 127.175 89.2673 127.25 89.192C127.325 89.0413 127.363 88.8907 127.363 88.74C127.137 88.8907 127.024 89.0413 127.024 89.192C127.024 89.2673 126.911 89.305 126.685 89.305C126.61 89.305 126.497 89.3803 126.346 89.531C126.195 89.6063 126.082 89.6063 126.007 89.531C125.706 89.531 125.555 89.4557 125.555 89.305C125.404 89.4557 125.329 89.6063 125.329 89.757C125.404 89.8323 125.367 89.9077 125.216 89.983C125.065 89.9077 124.99 89.757 124.99 89.531C124.764 89.531 124.651 89.6063 124.651 89.757C124.726 89.8323 124.689 89.87 124.538 89.87C124.463 89.87 124.425 89.8323 124.425 89.757C124.425 89.6817 124.35 89.644 124.199 89.644C124.048 89.644 123.898 89.6817 123.747 89.757C123.672 89.8323 123.559 89.7947 123.408 89.644C123.257 89.7947 123.182 89.983 123.182 90.209C123.031 90.3597 122.881 90.3973 122.73 90.322C122.655 90.2467 122.579 90.2843 122.504 90.435C122.353 90.435 122.24 90.3597 122.165 90.209C122.165 90.0583 122.09 90.0583 121.939 90.209C121.864 90.3597 121.826 90.4727 121.826 90.548C121.901 90.548 121.939 90.6233 121.939 90.774C121.864 90.9247 121.788 91 121.713 91C121.638 91 121.6 91.0377 121.6 91.113C121.374 91.113 121.186 91.0753 121.035 91C120.96 91 120.847 90.8493 120.696 90.548C120.545 90.6987 120.508 90.8117 120.583 90.887C120.658 90.9623 120.696 91.0377 120.696 91.113C120.545 91.2637 120.47 91.3013 120.47 91.226C120.47 91.1507 120.395 91.113 120.244 91.113C120.169 91.113 120.131 91.1883 120.131 91.339V91.565C119.98 91.7157 119.905 91.7533 119.905 91.678C119.905 91.6027 119.83 91.565 119.679 91.565C119.528 91.8663 119.566 92.0923 119.792 92.243C120.018 92.3937 120.131 92.582 120.131 92.808C119.98 92.8833 119.867 92.921 119.792 92.921C119.717 92.921 119.604 92.9963 119.453 93.147C119.302 93.147 119.227 93.034 119.227 92.808C119.227 92.6573 119.152 92.5067 119.001 92.356C118.7 91.8287 118.511 91.1883 118.436 90.435C118.361 89.6817 118.323 88.9283 118.323 88.175C118.323 87.497 118.285 86.7813 118.21 86.028C118.21 85.1993 118.248 84.4837 118.323 83.881C118.775 78.7583 119.302 73.2967 119.905 67.496C120.508 61.6953 121.186 55.7817 121.939 49.755C122.692 43.653 123.521 37.5133 124.425 31.336C125.329 25.1587 126.308 19.0943 127.363 13.143C127.664 11.6363 127.966 10.1673 128.267 8.73599C128.644 7.22933 129.058 5.685 129.51 4.10299C129.887 3.72633 130.075 3.27433 130.075 2.747C130.15 2.21966 130.489 1.76766 131.092 1.391C131.393 1.24033 131.732 1.12733 132.109 1.05199C132.486 0.97666 132.862 0.863662 133.239 0.712997C133.616 0.562328 134.369 0.449327 135.499 0.373995C136.704 0.298662 137.495 0.260996 137.872 0.260996C139.454 0.110327 140.433 0.599994 140.81 1.73C141.262 2.78466 141.413 3.95233 141.262 5.23299C140.433 11.4857 139.454 17.776 138.324 24.104C137.269 30.3567 136.441 36.6847 135.838 43.088ZM131.318 76.649C133.427 75.8203 135.273 74.276 136.855 72.016C138.512 69.756 139.605 67.3453 140.132 64.784C140.659 62.1473 140.509 59.6613 139.68 57.326C138.927 54.9153 137.194 53.1827 134.482 52.128C134.331 53.71 134.105 55.5557 133.804 57.665C133.503 59.7743 133.164 61.9213 132.787 64.106C132.486 66.2907 132.222 68.3623 131.996 70.321C131.77 72.2797 131.619 73.8993 131.544 75.18C131.544 75.4813 131.506 75.745 131.431 75.971C131.356 76.1217 131.318 76.3477 131.318 76.649ZM124.199 74.841C124.35 74.5397 124.425 74.163 124.425 73.711C124.5 73.1837 124.538 72.7693 124.538 72.468C124.538 72.0913 124.613 71.564 124.764 70.886C124.99 70.208 124.915 69.6807 124.538 69.304C124.387 69.4547 124.274 69.6053 124.199 69.756C124.124 69.9067 123.973 70.0573 123.747 70.208C123.521 70.434 123.408 70.66 123.408 70.886L123.634 71.112C123.634 71.2627 123.596 71.451 123.521 71.677C123.446 71.8277 123.483 71.9407 123.634 72.016C123.709 71.8653 123.747 71.677 123.747 71.451C123.747 71.225 123.822 71.0367 123.973 70.886C123.973 71.4887 123.935 71.9783 123.86 72.355C123.785 72.6563 123.747 73.033 123.747 73.485V73.598C123.898 73.598 123.973 73.598 123.973 73.598C123.973 73.5227 124.048 73.485 124.199 73.485C124.199 73.6357 124.124 73.8617 123.973 74.163C123.898 74.389 123.973 74.615 124.199 74.841ZM124.199 75.519C124.048 75.8203 123.935 76.1217 123.86 76.423C123.785 76.649 123.709 76.9503 123.634 77.327C123.483 77.327 123.408 77.4023 123.408 77.553C123.408 77.9297 123.408 78.118 123.408 78.118C123.559 78.118 123.634 78.0803 123.634 78.005C123.709 77.9297 123.822 77.8543 123.973 77.779C124.199 76.875 124.274 76.1217 124.199 75.519C124.199 75.4437 124.237 75.3683 124.312 75.293C124.387 75.2177 124.35 75.1047 124.199 74.954C124.199 75.1047 124.161 75.2177 124.086 75.293C124.011 75.3683 124.048 75.4437 124.199 75.519ZM125.329 76.423C125.103 76.2723 125.065 76.1217 125.216 75.971C125.442 75.8203 125.48 75.6697 125.329 75.519C125.178 75.6697 125.065 75.7073 124.99 75.632C124.99 75.5567 124.915 75.5943 124.764 75.745C124.764 75.8203 124.726 75.9333 124.651 76.084C124.576 76.2347 124.538 76.423 124.538 76.649C124.538 76.649 124.613 76.649 124.764 76.649H124.877V76.988C125.178 76.988 125.329 76.9127 125.329 76.762L125.216 76.649H125.103C125.103 76.4983 125.178 76.423 125.329 76.423ZM123.295 73.485C122.994 73.8617 122.918 74.3137 123.069 74.841C123.37 74.6903 123.483 74.5397 123.408 74.389C123.333 74.2383 123.333 73.9747 123.408 73.598C123.408 73.5227 123.446 73.4473 123.521 73.372C123.596 73.2967 123.634 73.1837 123.634 73.033C123.559 72.9577 123.521 72.8823 123.521 72.807C123.521 72.7317 123.483 72.694 123.408 72.694C123.408 72.6187 123.408 72.5433 123.408 72.468C123.333 72.6187 123.257 72.7693 123.182 72.92C123.107 73.0707 123.144 73.259 123.295 73.485ZM122.956 76.423L123.182 75.519C123.107 75.4437 123.069 75.3683 123.069 75.293V75.18H122.73C122.429 75.7073 122.429 76.1217 122.73 76.423H122.956ZM120.809 78.57C121.035 78.7207 121.186 78.683 121.261 78.457C121.336 78.231 121.336 78.0427 121.261 77.892C121.186 77.9673 121.148 78.005 121.148 78.005C121.073 78.005 121.035 77.9673 121.035 77.892C120.884 78.0427 120.809 78.2687 120.809 78.57ZM124.877 79.7C125.028 79.6247 125.103 79.5117 125.103 79.361C125.178 79.135 125.103 78.9467 124.877 78.796C124.877 78.9467 124.839 79.135 124.764 79.361C124.764 79.5117 124.802 79.6247 124.877 79.7ZM125.103 77.327C125.028 77.327 124.99 77.2893 124.99 77.214C124.915 77.214 124.877 77.1387 124.877 76.988H124.764V77.553C124.839 77.553 124.877 77.5907 124.877 77.666C124.877 77.7413 124.952 77.8167 125.103 77.892C125.178 77.8167 125.216 77.779 125.216 77.779H125.103V77.327ZM121.374 76.762C121.675 76.762 121.826 76.536 121.826 76.084L121.6 76.197C121.6 76.3477 121.562 76.4607 121.487 76.536C121.412 76.6113 121.374 76.6867 121.374 76.762ZM124.199 70.208C124.199 70.208 124.312 70.2457 124.538 70.321C124.463 70.4717 124.425 70.547 124.425 70.547H124.312C124.237 70.547 124.199 70.5847 124.199 70.66C124.199 70.66 124.124 70.66 123.973 70.66C123.973 70.434 124.048 70.2833 124.199 70.208ZM140.019 79.135C140.245 78.909 140.471 78.796 140.697 78.796C140.697 78.9467 140.622 79.0973 140.471 79.248C140.32 79.3233 140.17 79.2857 140.019 79.135ZM124.877 75.519C124.877 75.4437 124.915 75.3683 124.99 75.293C125.065 75.2177 125.103 75.1047 125.103 74.954C124.952 74.8033 124.839 74.841 124.764 75.067C124.764 75.2177 124.802 75.3683 124.877 75.519ZM123.747 68.852C123.672 69.0027 123.596 69.1533 123.521 69.304C123.446 69.4547 123.483 69.5677 123.634 69.643C123.709 69.5677 123.747 69.304 123.747 68.852ZM139.567 72.016C139.718 71.8653 139.718 71.79 139.567 71.79C139.416 71.7147 139.303 71.7523 139.228 71.903C139.228 71.9783 139.341 72.016 139.567 72.016ZM140.923 69.304C141.074 69.304 141.149 69.2663 141.149 69.191V69.078C141.149 68.9273 141.074 68.8897 140.923 68.965C140.772 68.965 140.772 69.078 140.923 69.304ZM124.312 72.242C124.463 72.242 124.5 72.3173 124.425 72.468C124.425 72.5433 124.35 72.581 124.199 72.581V72.468C124.199 72.3173 124.237 72.242 124.312 72.242ZM204.032 55.405C204.258 55.1037 204.521 54.727 204.823 54.275C205.124 53.7477 205.425 53.3333 205.727 53.032C206.028 52.7307 206.292 52.58 206.518 52.58C206.744 52.5047 206.932 52.7307 207.083 53.258C207.158 53.484 207.271 53.6723 207.422 53.823C207.572 53.9737 207.685 54.2373 207.761 54.614C207.987 55.8193 207.836 57.0247 207.309 58.23C206.48 59.812 205.35 61.7707 203.919 64.106C202.487 66.366 200.868 68.5883 199.06 70.773C197.252 72.8823 195.293 74.728 193.184 76.31C191.15 77.892 189.078 78.7207 186.969 78.796C182.599 78.9467 179.473 77.9673 177.59 75.858C175.706 73.6733 174.765 70.208 174.765 65.462V64.897C173.635 66.931 172.467 68.852 171.262 70.66C170.056 72.468 168.776 74.05 167.42 75.406C166.139 76.762 164.783 77.8543 163.352 78.683C161.996 79.4363 160.564 79.813 159.058 79.813C158.38 79.813 157.664 79.6247 156.911 79.248C156.157 78.796 155.404 78.2687 154.651 77.666C153.973 77.0633 153.332 76.423 152.73 75.745C152.202 74.9917 151.826 74.276 151.6 73.598C151.298 72.8447 151.072 71.9783 150.922 70.999C150.846 69.9443 150.809 68.852 150.809 67.722C150.809 65.6127 150.959 63.428 151.261 61.168C151.637 58.8327 152.127 56.6103 152.73 54.501C153.332 52.3163 154.01 50.3953 154.764 48.738C155.592 47.0053 156.459 45.7247 157.363 44.896C158.417 43.8413 159.547 43.1633 160.753 42.862C161.958 42.5607 163.126 42.41 164.256 42.41C164.331 42.7113 164.595 43.0127 165.047 43.314C165.499 43.54 165.951 43.766 166.403 43.992C166.93 44.218 167.382 44.4817 167.759 44.783C168.135 45.009 168.324 45.2727 168.324 45.574C168.324 46.3273 168.211 47.0807 167.985 47.834C167.759 48.512 167.57 49.0393 167.42 49.416C167.344 49.642 167.118 50.32 166.742 51.45C166.44 52.58 166.064 53.9737 165.612 55.631C165.16 57.213 164.708 58.908 164.256 60.716C163.879 62.524 163.54 64.219 163.239 65.801C163.013 67.3077 162.9 68.5883 162.9 69.643C162.9 70.6223 163.126 71.112 163.578 71.112C163.804 71.112 163.954 71.0743 164.03 70.999C164.783 70.2457 165.649 69.1533 166.629 67.722C167.608 66.2907 168.625 64.7463 169.68 63.089C170.734 61.3563 171.789 59.586 172.844 57.778C173.974 55.97 175.028 54.275 176.008 52.693C176.987 51.111 177.853 49.755 178.607 48.625C179.36 47.495 179.963 46.7417 180.415 46.365C181.394 45.461 182.449 44.9713 183.579 44.896H183.692H183.805C184.031 44.896 184.483 44.896 185.161 44.896C185.914 44.896 186.63 45.009 187.308 45.235C188.061 45.3857 188.664 45.687 189.116 46.139C189.568 46.5157 189.681 47.156 189.455 48.06C189.304 48.512 189.04 49.6043 188.664 51.337C188.362 52.9943 188.023 54.9153 187.647 57.1C187.27 59.2093 186.931 61.394 186.63 63.654C186.328 65.8387 186.178 67.7597 186.178 69.417C186.178 71.0743 186.253 72.3927 186.404 73.372C186.63 74.276 186.969 74.728 187.421 74.728C188.099 74.728 189.116 74.05 190.472 72.694C191.903 71.2627 193.41 69.5677 194.992 67.609C196.649 65.575 198.269 63.4657 199.851 61.281C201.508 59.021 202.902 57.0623 204.032 55.405ZM208.758 85.35C208.683 85.4253 208.608 85.5007 208.532 85.576C208.457 85.6513 208.419 85.802 208.419 86.028C208.419 86.4047 208.419 86.706 208.419 86.932C208.495 87.158 208.57 87.4593 208.645 87.836C208.269 87.61 208.08 87.384 208.08 87.158C208.08 86.8567 207.892 86.706 207.515 86.706L207.741 87.497C207.741 87.5723 207.666 87.5723 207.515 87.497C207.44 87.4217 207.365 87.3087 207.289 87.158C207.289 87.3087 207.252 87.4217 207.176 87.497C207.176 87.5723 207.176 87.6853 207.176 87.836C207.101 87.836 206.988 87.723 206.837 87.497C206.687 87.271 206.536 87.045 206.385 86.819C206.31 86.5177 206.197 86.254 206.046 86.028C205.971 85.7267 205.896 85.5383 205.82 85.463C205.82 85.9903 205.82 86.4423 205.82 86.819C205.82 87.1957 205.896 87.61 206.046 88.062C205.896 88.062 205.745 87.9113 205.594 87.61C205.519 87.2333 205.444 86.8567 205.368 86.48C205.293 86.028 205.218 85.6137 205.142 85.237C205.142 84.8603 205.105 84.6343 205.029 84.559C204.954 84.4837 204.879 84.5967 204.803 84.898C204.803 85.124 204.766 85.3877 204.69 85.689C204.69 85.9903 204.69 86.2917 204.69 86.593C204.69 86.819 204.69 86.932 204.69 86.932C204.54 86.932 204.427 86.7813 204.351 86.48C204.276 86.1033 204.201 85.7267 204.125 85.35C204.05 84.898 203.975 84.333 203.899 83.655C203.673 83.9563 203.56 84.559 203.56 85.463C203.184 85.3123 202.958 84.9357 202.882 84.333C202.882 83.7303 202.769 83.429 202.543 83.429C202.393 83.429 202.317 83.768 202.317 84.446C202.317 85.124 202.28 85.463 202.204 85.463C202.054 85.463 201.903 85.011 201.752 84.107C201.602 83.1277 201.451 81.9977 201.3 80.717C201.225 79.4363 201.15 78.1933 201.074 76.988C201.074 75.7073 201.074 74.728 201.074 74.05C201.074 73.6733 201.074 73.259 201.074 72.807C201.15 72.355 201.187 71.9407 201.187 71.564C201.489 67.722 201.752 64.0683 201.978 60.603C202.204 57.1377 202.468 53.71 202.769 50.32C203.071 46.93 203.372 43.54 203.673 40.15C203.975 36.6847 204.351 33.1063 204.803 29.415H204.012C203.259 29.415 202.43 29.3773 201.526 29.302C200.622 29.1513 199.794 28.9253 199.04 28.624C198.287 28.3227 197.647 27.9837 197.119 27.607C196.667 27.155 196.441 26.59 196.441 25.912C196.441 25.686 196.78 25.5353 197.458 25.46C198.212 25.3093 199.078 25.1963 200.057 25.121C201.112 25.0457 202.129 25.008 203.108 25.008C204.088 24.9327 204.879 24.895 205.481 24.895C205.707 24.1417 205.896 23.087 206.046 21.731C206.272 20.375 206.498 18.9437 206.724 17.437C206.95 15.9303 207.176 14.4237 207.402 12.917C207.704 11.4103 208.005 10.1673 208.306 9.188C208.683 7.98266 209.361 7.19166 210.34 6.81499C211.32 6.43833 212.337 6.24999 213.391 6.24999C213.843 6.24999 214.446 6.28766 215.199 6.363C216.028 6.43833 216.819 6.589 217.572 6.81499C218.326 6.96566 218.966 7.22933 219.493 7.606C220.096 7.98266 220.397 8.43466 220.397 8.962C220.397 9.33867 220.322 9.67767 220.171 9.979C220.322 10.5063 220.397 11.0713 220.397 11.674C220.397 12.2767 220.397 12.917 220.397 13.595C220.397 16.1563 220.247 18.341 219.945 20.149C219.719 21.957 219.531 23.652 219.38 25.234C221.188 25.234 223.072 25.347 225.03 25.573C227.064 25.799 228.684 26.4017 229.889 27.381C229.588 27.381 229.249 27.5693 228.872 27.946C228.496 28.3227 228.119 28.511 227.742 28.511C227.818 28.511 227.893 28.5487 227.968 28.624C228.044 28.6993 228.081 28.7747 228.081 28.85C228.081 28.85 228.119 28.8877 228.194 28.963C227.742 28.963 227.064 29.0007 226.16 29.076C225.256 29.076 224.315 29.1137 223.335 29.189C222.356 29.2643 221.414 29.3397 220.51 29.415C219.682 29.415 219.117 29.4527 218.815 29.528C218.213 34.8767 217.61 39.924 217.007 44.67C216.48 49.416 215.915 54.049 215.312 58.569C214.71 63.089 214.069 67.6467 213.391 72.242C212.789 76.8373 212.148 81.6587 211.47 86.706C211.395 86.932 211.32 87.158 211.244 87.384C211.169 87.5347 211.131 87.6853 211.131 87.836C211.056 87.9113 210.981 87.7607 210.905 87.384C210.83 86.932 210.679 86.4423 210.453 85.915C210.453 86.2917 210.416 86.6683 210.34 87.045C210.34 87.4217 210.34 87.7607 210.34 88.062C210.039 87.9867 209.7 87.6853 209.323 87.158C208.947 86.6307 208.758 86.028 208.758 85.35ZM235.824 51.563C235.749 52.0903 235.523 52.9943 235.146 54.275C234.845 55.4803 234.468 56.874 234.016 58.456C233.64 59.9627 233.225 61.5823 232.773 63.315C232.397 64.9723 232.058 66.5543 231.756 68.061C231.53 69.5677 231.38 70.886 231.304 72.016C231.304 73.0707 231.493 73.7487 231.869 74.05C232.321 74.502 233.075 74.3513 234.129 73.598C235.184 72.8447 236.352 71.79 237.632 70.434C238.913 69.0027 240.231 67.4207 241.587 65.688C243.019 63.88 244.299 62.185 245.429 60.603C246.635 59.021 247.652 57.6273 248.48 56.422C249.384 55.2167 249.912 54.501 250.062 54.275C250.439 53.7477 250.853 53.5593 251.305 53.71C251.833 53.8607 252.285 54.162 252.661 54.614C253.038 55.066 253.264 55.631 253.339 56.309C253.49 56.9117 253.377 57.4767 253 58.004C251.418 60.3393 249.686 62.9007 247.802 65.688C245.919 68.4 243.923 70.8483 241.813 73.033C239.704 75.2177 237.444 76.875 235.033 78.005C232.698 79.0597 230.287 79.135 227.801 78.231C227.274 78.005 226.596 77.7037 225.767 77.327C224.939 76.9503 224.11 76.3477 223.281 75.519C222.528 74.6903 221.85 73.598 221.247 72.242C220.72 70.886 220.456 69.1157 220.456 66.931C220.456 65.349 220.645 63.4657 221.021 61.281C221.473 59.0963 222.038 56.987 222.716 54.953C223.394 52.8437 224.148 50.9603 224.976 49.303C225.88 47.6457 226.784 46.5533 227.688 46.026C228.291 45.6493 228.818 45.5363 229.27 45.687C229.798 45.7623 230.4 45.8 231.078 45.8C231.907 45.8 232.66 45.9883 233.338 46.365C234.092 46.6663 234.694 47.1183 235.146 47.721C235.674 48.2483 236.013 48.851 236.163 49.529C236.314 50.207 236.201 50.885 235.824 51.563ZM241.361 35.517C241.361 36.9483 240.796 38.1913 239.666 39.246C238.536 40.3007 237.293 40.828 235.937 40.828C235.109 40.828 234.318 40.5267 233.564 39.924C232.886 39.246 232.284 38.5303 231.756 37.777C231.229 37.0237 230.815 36.3457 230.513 35.743C230.212 35.065 230.061 34.726 230.061 34.726C230.061 33.9727 230.363 33.2947 230.965 32.692C231.643 32.014 232.397 31.449 233.225 30.997C234.129 30.545 235.033 30.206 235.937 29.98C236.841 29.754 237.519 29.641 237.971 29.641C239.026 29.641 239.855 30.0177 240.457 30.771C241.06 31.5243 241.361 32.8427 241.361 34.726V35.517ZM279.543 31.901C280.146 31.901 280.899 31.8257 281.803 31.675C282.782 31.5243 283.272 31.5243 283.272 31.675C283.272 31.9763 282.971 32.5413 282.368 33.37C281.841 34.1233 281.163 34.952 280.334 35.856C279.581 36.6847 278.79 37.5133 277.961 38.342C277.208 39.1707 276.643 39.7733 276.266 40.15C274.91 41.506 273.667 42.7867 272.537 43.992C271.482 45.1973 270.465 46.365 269.486 47.495C268.582 48.5497 267.64 49.642 266.661 50.772C265.757 51.902 264.815 53.0697 263.836 54.275C263.083 55.179 262.706 56.0077 262.706 56.761C262.706 57.5143 262.894 58.117 263.271 58.569C265.832 61.733 268.356 64.8593 270.842 67.948C273.403 71.0367 276.304 73.8993 279.543 76.536C279.694 76.6867 279.92 76.8373 280.221 76.988C280.522 77.1387 280.786 77.2893 281.012 77.44C280.861 77.44 280.711 77.44 280.56 77.44C280.485 77.3647 280.334 77.327 280.108 77.327H279.769C279.543 77.327 279.43 77.2893 279.43 77.214C279.43 77.0633 279.279 76.988 278.978 76.988C278.903 77.1387 278.752 77.1763 278.526 77.101C278.375 77.0257 278.3 76.9503 278.3 76.875C277.999 77.0257 277.773 77.1763 277.622 77.327C277.547 77.4023 277.434 77.44 277.283 77.44C277.057 77.44 276.68 77.4023 276.153 77.327C275.701 77.2517 275.287 77.214 274.91 77.214C274.458 77.214 274.081 77.2893 273.78 77.44C273.855 77.5153 273.893 77.6283 273.893 77.779C273.893 77.8543 273.78 77.892 273.554 77.892C271.746 77.892 270.089 77.5907 268.582 76.988C267.151 76.31 265.795 75.4813 264.514 74.502C263.233 73.4473 262.028 72.3173 260.898 71.112C259.843 69.8313 258.789 68.5883 257.734 67.383C257.357 68.965 257.056 70.6223 256.83 72.355C256.679 74.0877 256.604 75.8203 256.604 77.553C256.604 79.0597 256.679 80.491 256.83 81.847C256.981 83.203 257.282 84.5967 257.734 86.028C257.734 86.1787 257.734 86.2917 257.734 86.367C257.809 86.367 257.847 86.4047 257.847 86.48C257.847 86.5553 257.809 86.593 257.734 86.593C257.734 86.593 257.734 86.6307 257.734 86.706C257.583 86.6307 257.508 86.593 257.508 86.593H257.395C257.244 86.593 257.169 86.6307 257.169 86.706C257.169 86.7813 257.169 86.8943 257.169 87.045C257.244 87.1203 257.282 87.1957 257.282 87.271L256.943 86.932C256.943 87.0073 256.905 87.0827 256.83 87.158C256.679 87.0073 256.604 86.8567 256.604 86.706C256.679 86.5553 256.529 86.48 256.152 86.48C256.303 86.7813 256.378 86.932 256.378 86.932V87.045C256.303 87.045 256.077 86.8567 255.7 86.48V86.706C255.625 86.706 255.549 86.6683 255.474 86.593C255.474 86.4423 255.436 86.3293 255.361 86.254C255.512 86.5553 255.587 86.7437 255.587 86.819C255.662 86.8943 255.775 87.1203 255.926 87.497C255.775 87.497 255.7 87.4217 255.7 87.271L255.587 87.158V87.497C255.512 87.497 255.361 87.4217 255.135 87.271C254.909 87.1203 254.758 86.9697 254.683 86.819C254.758 86.9697 254.796 87.158 254.796 87.384C254.871 87.5347 254.984 87.6853 255.135 87.836C254.984 87.836 254.909 87.8737 254.909 87.949C254.608 87.6477 254.344 87.497 254.118 87.497H254.005C254.005 87.6477 254.043 87.7607 254.118 87.836H254.005C253.93 87.836 253.892 87.7983 253.892 87.723L253.779 87.61C253.704 87.6853 253.591 87.723 253.44 87.723C253.365 87.723 253.327 87.723 253.327 87.723C253.327 87.6477 253.289 87.61 253.214 87.61C253.139 87.61 253.101 87.6477 253.101 87.723C253.176 87.7983 253.214 87.8737 253.214 87.949H252.875V88.401C252.8 88.175 252.649 88.0243 252.423 87.949C252.272 87.7983 252.084 87.6477 251.858 87.497V87.723C251.858 88.0243 251.783 88.2503 251.632 88.401C251.481 87.949 251.331 87.6477 251.18 87.497V87.836C251.18 87.9113 251.142 87.949 251.067 87.949C250.841 87.949 250.728 87.8737 250.728 87.723H250.615C250.54 87.6477 250.464 87.61 250.389 87.61C250.389 87.7607 250.163 87.8737 249.711 87.949C249.334 87.949 249.071 87.949 248.92 87.949C247.79 87.949 246.924 87.5347 246.321 86.706C245.794 85.802 245.492 84.785 245.417 83.655C244.438 83.2783 243.797 82.3367 243.496 80.83C243.195 79.3233 243.044 77.7037 243.044 75.971C243.044 71.677 243.345 67.4207 243.948 63.202C244.626 58.9833 245.266 54.84 245.869 50.772C246.472 46.1767 247.376 41.6943 248.581 37.325C249.786 32.8803 251.368 28.5487 253.327 24.33C253.779 24.104 254.156 23.9157 254.457 23.765C254.834 23.539 255.248 23.539 255.7 23.765C256.001 23.0117 256.227 22.296 256.378 21.618C256.604 20.94 256.83 20.375 257.056 19.923C257.282 19.3957 257.583 18.9813 257.96 18.68C258.412 18.3787 259.015 18.1903 259.768 18.115C260.295 18.0397 260.785 18.1527 261.237 18.454C261.764 18.68 262.254 18.8307 262.706 18.906C262.781 18.906 262.819 18.8683 262.819 18.793C264.25 19.019 265.117 19.6217 265.418 20.601C265.719 21.505 265.87 22.5597 265.87 23.765C265.87 25.2717 265.719 26.7407 265.418 28.172C265.117 29.528 264.778 30.8463 264.401 32.127C263.045 37.1743 261.877 42.184 260.898 47.156C262.103 45.7247 263.422 44.1427 264.853 42.41C266.36 40.602 267.904 38.9447 269.486 37.438C271.143 35.856 272.801 34.5377 274.458 33.483C276.191 32.4283 277.886 31.901 279.543 31.901ZM255.248 82.977C255.399 83.1277 255.474 83.316 255.474 83.542C255.549 83.8433 255.625 84.107 255.7 84.333C255.851 84.4837 255.888 84.7097 255.813 85.011V85.124C256.039 85.1993 256.152 85.35 256.152 85.576C256.227 85.7267 256.378 85.8773 256.604 86.028C256.529 85.7267 256.453 85.4253 256.378 85.124C256.303 84.7473 256.265 84.4083 256.265 84.107C256.34 84.1823 256.378 84.1823 256.378 84.107C256.378 84.1823 256.416 84.22 256.491 84.22C256.566 84.1447 256.566 84.0317 256.491 83.881C256.491 83.7303 256.491 83.5797 256.491 83.429C256.416 83.5797 256.378 83.655 256.378 83.655C256.453 83.5797 256.453 83.6173 256.378 83.768L256.265 83.881C256.19 83.2783 256.039 82.5627 255.813 81.734C255.587 80.83 255.512 80.1897 255.587 79.813C255.888 79.9637 256.001 80.039 255.926 80.039C255.926 79.8883 255.775 79.7 255.474 79.474C255.248 79.248 255.21 78.9843 255.361 78.683C255.361 78.6077 255.323 78.57 255.248 78.57C255.248 78.4947 255.248 78.4193 255.248 78.344V78.231L255.135 78.118C254.984 78.0427 254.909 77.9673 254.909 77.892C254.984 77.7413 254.947 77.5907 254.796 77.44C254.796 77.666 254.871 77.892 255.022 78.118H254.909C254.834 78.1933 254.796 78.2687 254.796 78.344C254.871 78.4193 254.909 78.4947 254.909 78.57C254.909 78.6453 254.947 78.683 255.022 78.683V78.909L254.796 79.135C254.721 78.7583 254.608 78.1933 254.457 77.44C254.382 76.6113 254.269 76.1217 254.118 75.971C254.043 76.197 254.005 76.4607 254.005 76.762C254.08 77.0633 254.156 77.3647 254.231 77.666C254.306 77.9673 254.344 78.3063 254.344 78.683L254.231 78.796C254.306 79.1727 254.382 79.5117 254.457 79.813C254.532 80.1143 254.495 80.4157 254.344 80.717C254.269 80.7923 254.193 80.83 254.118 80.83C254.344 80.9053 254.419 81.0183 254.344 81.169C254.344 81.2443 254.306 81.3573 254.231 81.508C254.382 81.8093 254.419 82.1107 254.344 82.412C254.344 82.7133 254.382 83.0147 254.457 83.316C254.156 82.7887 253.967 82.1483 253.892 81.395C253.817 80.5663 253.704 80.0767 253.553 79.926C253.478 80.3027 253.44 80.6793 253.44 81.056C253.44 81.3573 253.44 81.621 253.44 81.847C253.139 81.3197 252.95 80.7923 252.875 80.265C252.8 79.6623 252.724 79.2103 252.649 78.909C252.574 79.135 252.461 79.7753 252.31 80.83C252.235 81.8093 252.461 82.864 252.988 83.994C252.988 83.768 252.913 83.8057 252.762 84.107C252.687 84.1823 252.762 84.333 252.988 84.559C253.139 84.6343 253.176 84.6343 253.101 84.559C253.101 84.4837 253.139 84.4837 253.214 84.559C253.214 84.6343 253.327 84.7097 253.553 84.785C253.402 85.011 253.553 85.237 254.005 85.463C253.854 85.0863 253.817 84.898 253.892 84.898C254.043 84.8227 254.005 84.7097 253.779 84.559L254.118 84.446C254.269 84.3707 254.306 84.2577 254.231 84.107C254.156 83.9563 254.156 83.8433 254.231 83.768H254.344C254.344 83.768 254.419 83.8433 254.57 83.994C254.57 84.0693 254.608 84.1447 254.683 84.22L254.796 83.881C254.947 84.107 254.984 84.3707 254.909 84.672C254.909 84.9733 255.022 85.3123 255.248 85.689C255.248 85.6137 255.286 85.5007 255.361 85.35V85.463C255.361 85.5383 255.399 85.576 255.474 85.576C255.625 84.898 255.474 84.5213 255.022 84.446C255.097 84.3707 255.173 84.3707 255.248 84.446C255.323 84.446 255.399 84.3707 255.474 84.22C255.549 84.1447 255.512 84.0693 255.361 83.994C255.286 83.8433 255.323 83.6927 255.474 83.542L255.361 83.316H255.248C255.097 83.2407 255.097 83.1277 255.248 82.977ZM255.248 75.519C255.399 75.6697 255.399 75.8203 255.248 75.971C255.173 76.1217 255.135 76.2723 255.135 76.423L255.248 76.762C255.399 76.9127 255.474 77.1763 255.474 77.553C255.474 77.8543 255.549 78.0427 255.7 78.118C255.625 77.666 255.587 76.9503 255.587 75.971C255.662 74.9163 255.813 74.05 256.039 73.372C255.888 73.372 255.738 73.598 255.587 74.05C255.512 74.4267 255.399 74.9163 255.248 75.519ZM255.022 79.474V79.7C255.022 79.8507 254.984 79.926 254.909 79.926C254.984 80.0767 254.947 80.265 254.796 80.491C254.645 80.265 254.645 80.0013 254.796 79.7C254.871 79.6247 254.909 79.5493 254.909 79.474V79.361L255.022 79.474ZM256.265 85.237L256.152 85.124C256.077 85.124 256.001 85.0863 255.926 85.011V84.898C255.926 84.8227 255.964 84.7473 256.039 84.672C256.416 84.8227 256.491 85.011 256.265 85.237ZM255.135 82.186C254.984 81.96 254.947 81.8093 255.022 81.734C255.173 81.8093 255.248 81.9223 255.248 82.073C255.248 82.1483 255.21 82.186 255.135 82.186ZM252.536 80.83L252.649 80.491V80.83C252.649 80.9053 252.611 80.943 252.536 80.943C252.536 80.943 252.536 80.9807 252.536 81.056V81.169C252.536 81.169 252.536 81.0937 252.536 80.943V80.83ZM255.135 82.751V82.525H255.361L255.248 82.751H255.135ZM253.553 82.299C253.478 82.3743 253.402 82.412 253.327 82.412H253.214V82.299H253.553ZM256.491 83.881C256.416 83.9563 256.378 84.0317 256.378 84.107C256.378 84.0317 256.378 83.994 256.378 83.994C256.453 83.994 256.491 83.9563 256.491 83.881ZM321.733 51.111C321.733 51.2617 321.77 51.45 321.846 51.676C321.921 51.8267 322.072 51.9397 322.298 52.015C322.072 52.241 321.959 52.3917 321.959 52.467C321.959 52.5423 321.996 52.6177 322.072 52.693C322.147 52.7683 322.185 52.8813 322.185 53.032C322.185 53.1827 322.147 53.2957 322.072 53.371C322.072 53.4463 322.072 53.484 322.072 53.484C322.147 53.4087 322.185 53.4087 322.185 53.484C322.185 53.71 322.147 54.0113 322.072 54.388C321.996 54.7647 321.808 55.1037 321.507 55.405C321.507 55.3297 321.507 55.2167 321.507 55.066C321.507 54.9153 321.582 54.7647 321.733 54.614H321.62C321.469 54.614 321.318 54.84 321.168 55.292C321.017 55.744 320.414 56.987 319.36 59.021C319.736 58.795 320.075 58.4183 320.377 57.891C320.678 57.2883 320.979 56.761 321.281 56.309V56.535C321.281 56.6857 321.205 56.8363 321.055 56.987C320.979 57.0623 320.942 57.1753 320.942 57.326C321.318 56.9493 321.582 56.535 321.733 56.083C321.883 55.5557 322.147 54.8777 322.524 54.049C322.599 54.1243 322.637 54.1997 322.637 54.275V54.388V54.84C322.712 54.84 322.75 54.9153 322.75 55.066C322.75 55.292 322.637 55.4803 322.411 55.631C322.26 55.7817 322.185 55.9323 322.185 56.083C322.185 56.1583 322.26 56.2713 322.411 56.422C322.185 57.2507 321.733 58.23 321.055 59.36C320.452 60.4147 319.736 61.5447 318.908 62.75C318.079 63.88 317.213 65.01 316.309 66.14C315.48 67.27 314.764 68.2117 314.162 68.965C314.086 69.0403 314.011 69.078 313.936 69.078C313.86 69.078 313.936 68.8143 314.162 68.287C314.463 67.7597 314.727 67.4207 314.953 67.27V67.496C315.706 66.5167 316.572 65.3113 317.552 63.88C318.606 62.4487 319.51 61.1303 320.264 59.925H320.151V59.699L320.603 59.247C320.753 59.0963 320.866 58.9457 320.942 58.795C320.942 58.8703 320.904 58.9457 320.829 59.021C321.055 58.795 321.13 58.569 321.055 58.343C321.055 58.117 321.13 57.9663 321.281 57.891V57.552C321.13 57.552 320.904 57.8157 320.603 58.343C320.377 58.8703 319.887 59.6237 319.134 60.603H319.36C319.284 60.9043 319.021 61.2433 318.569 61.62C318.192 61.9213 317.702 62.637 317.1 63.767C317.024 63.767 316.987 63.7293 316.987 63.654C316.911 63.654 316.874 63.5787 316.874 63.428C316.949 63.428 316.836 63.654 316.535 64.106C316.233 64.558 316.045 64.897 315.97 65.123L315.857 64.897C315.781 65.0477 315.631 65.349 315.405 65.801C315.254 66.1777 315.103 66.4413 314.953 66.592H314.84C314.538 67.044 314.275 67.3453 314.049 67.496L314.162 67.722C314.162 67.948 314.049 68.2117 313.823 68.513C313.672 68.8143 313.484 69.1533 313.258 69.53C313.032 69.8313 312.843 70.095 312.693 70.321C312.542 70.4717 312.467 70.547 312.467 70.547C311.412 71.7523 310.207 73.033 308.851 74.389C307.495 75.6697 306.026 76.8373 304.444 77.892C302.937 78.9467 301.393 79.8507 299.811 80.604C298.229 81.282 296.76 81.621 295.404 81.621H295.291C295.215 81.621 295.178 81.5833 295.178 81.508C295.253 81.508 295.291 81.4703 295.291 81.395V81.282C294.839 81.282 294.424 81.3197 294.048 81.395C293.671 81.4703 293.294 81.508 292.918 81.508C292.767 81.508 292.541 81.4703 292.24 81.395C291.938 81.3197 291.712 81.282 291.562 81.282C291.486 81.282 291.449 81.3197 291.449 81.395C291.524 81.4703 291.486 81.508 291.336 81.508C291.26 81.3573 291.034 81.282 290.658 81.282H290.206C289.829 81.1313 289.452 81.0183 289.076 80.943C288.774 80.8677 288.435 80.7547 288.059 80.604C288.511 81.056 289.076 81.3573 289.754 81.508C290.432 81.5833 291.11 81.621 291.788 81.621H293.031C292.88 81.7717 292.767 81.8093 292.692 81.734C292.616 81.6587 292.503 81.6963 292.353 81.847C292.729 81.847 292.918 81.847 292.918 81.847C292.993 81.7717 293.031 81.8093 293.031 81.96C292.428 81.96 291.675 81.9223 290.771 81.847C289.942 81.6963 289.151 81.508 288.398 81.282C288.548 81.4327 288.699 81.5457 288.85 81.621C289.076 81.621 289.226 81.6963 289.302 81.847C288.925 81.847 288.624 81.8093 288.398 81.734C288.172 81.5833 287.946 81.4327 287.72 81.282H287.607C287.682 81.4327 287.72 81.508 287.72 81.508H287.607C287.531 81.508 287.494 81.4703 287.494 81.395L287.381 81.282C286.929 81.3573 286.514 81.282 286.138 81.056C285.836 80.7547 285.497 80.5663 285.121 80.491C283.162 78.683 281.731 76.6867 280.827 74.502C279.923 72.242 279.471 69.9067 279.471 67.496C279.471 65.0853 279.998 62.524 281.053 59.812C282.183 57.0247 283.652 54.4633 285.46 52.128C287.343 49.7173 289.528 47.721 292.014 46.139C294.5 44.557 297.136 43.766 299.924 43.766C300.451 43.766 300.865 43.8413 301.167 43.992C301.468 44.1427 301.732 44.331 301.958 44.557C302.184 44.7077 302.41 44.896 302.636 45.122C302.937 45.348 303.276 45.574 303.653 45.8C303.577 45.8 303.54 45.7623 303.54 45.687V45.461C303.615 45.6117 303.653 45.687 303.653 45.687H303.766C303.841 45.687 303.879 45.6493 303.879 45.574C303.879 45.4987 303.841 45.461 303.766 45.461C303.766 45.3857 303.766 45.3103 303.766 45.235L304.105 45.687C304.18 45.687 304.218 45.6493 304.218 45.574V45.348C304.368 45.7247 304.444 46.139 304.444 46.591C304.444 46.9677 304.519 47.3067 304.67 47.608C304.82 48.06 305.084 48.625 305.461 49.303C305.913 49.9057 306.139 50.9603 306.139 52.467C306.139 53.371 305.95 54.4633 305.574 55.744C305.197 57.0247 304.519 58.23 303.54 59.36C302.636 60.49 301.317 61.4693 299.585 62.298C297.927 63.1267 295.78 63.541 293.144 63.541C292.315 63.541 291.524 63.5033 290.771 63.428C290.017 63.3527 289.339 63.2397 288.737 63.089C288.285 64.445 288.059 65.6503 288.059 66.705C288.059 68.8897 288.737 70.547 290.093 71.677C291.449 72.807 293.219 73.372 295.404 73.372C297.739 73.372 299.924 72.7693 301.958 71.564C303.992 70.3587 305.988 68.7767 307.947 66.818C309.905 64.784 311.902 62.4863 313.936 59.925C316.045 57.2883 318.305 54.5387 320.716 51.676C320.791 51.676 320.942 51.6007 321.168 51.45C321.394 51.224 321.582 51.111 321.733 51.111ZM294.839 50.885C293.859 51.9397 292.955 53.145 292.127 54.501C291.298 55.7817 290.658 57.0623 290.206 58.343C290.658 58.0417 291.373 57.5897 292.353 56.987C293.407 56.3843 294.5 55.6687 295.63 54.84C296.76 54.0113 297.814 53.1073 298.794 52.128C299.773 51.0733 300.413 49.981 300.715 48.851C300.489 48.7757 300.112 48.738 299.585 48.738C298.681 48.738 297.814 48.964 296.986 49.416C296.157 49.868 295.441 50.3577 294.839 50.885ZM317.213 61.62C317.288 61.3187 317.401 61.0927 317.552 60.942C317.702 60.716 317.853 60.49 318.004 60.264C317.627 60.4147 317.363 60.716 317.213 61.168C317.137 61.62 316.949 62.0343 316.648 62.411V62.637C316.648 62.5617 316.497 62.75 316.196 63.202C315.894 63.654 315.668 63.993 315.518 64.219C315.744 63.8423 315.97 63.3903 316.196 62.863C316.497 62.3357 316.685 61.846 316.761 61.394C316.61 61.62 316.497 61.733 316.422 61.733V61.394C316.12 61.7707 315.894 62.2227 315.744 62.75C315.593 63.2773 315.292 63.8423 314.84 64.445L314.727 64.219C314.576 64.5957 314.425 64.8593 314.275 65.01C314.124 65.1607 314.049 65.3867 314.049 65.688V65.801C314.049 65.801 314.124 65.7257 314.275 65.575C314.275 65.4997 314.312 65.462 314.388 65.462H314.614C314.463 65.5373 314.388 65.6503 314.388 65.801C314.388 65.8763 314.312 65.9893 314.162 66.14C314.463 65.9893 314.651 65.801 314.727 65.575C314.802 65.2737 314.953 65.0477 315.179 64.897C315.254 64.9723 315.329 65.01 315.405 65.01C315.405 64.8593 315.48 64.671 315.631 64.445C315.781 64.2943 315.894 64.106 315.97 63.88C316.12 63.654 316.309 63.3903 316.535 63.089C316.459 63.089 316.459 63.1267 316.535 63.202C316.685 63.202 316.723 63.2773 316.648 63.428C316.723 63.2773 316.798 63.1643 316.874 63.089C316.949 63.0137 317.024 62.9007 317.1 62.75V62.524C317.1 62.3733 317.1 62.2603 317.1 62.185C317.175 62.1097 317.213 61.9967 317.213 61.846V61.62ZM319.021 58.23C318.945 58.23 318.908 58.1923 318.908 58.117C318.908 57.9663 319.134 57.5897 319.586 56.987C320.113 56.309 320.452 55.8193 320.603 55.518C320.226 55.8947 319.623 56.535 318.795 57.439C318.041 58.2677 317.665 59.0963 317.665 59.925V60.264C317.74 60.1887 317.815 60.038 317.891 59.812C318.041 59.5107 318.192 59.36 318.343 59.36C318.418 59.36 318.456 59.473 318.456 59.699C318.606 59.3977 318.682 59.134 318.682 58.908C318.682 58.682 318.795 58.456 319.021 58.23ZM299.133 45.009C298.831 45.009 298.53 45.0467 298.229 45.122C298.153 45.0467 298.116 45.009 298.116 45.009V44.896C297.965 44.9713 297.588 45.122 296.986 45.348C296.383 45.4987 295.931 45.7247 295.63 46.026C296.383 45.8753 297.023 45.6493 297.551 45.348C297.701 45.348 297.814 45.3857 297.89 45.461C298.04 45.461 298.191 45.461 298.342 45.461C298.492 45.461 298.643 45.4233 298.794 45.348C298.944 45.2727 299.02 45.1973 299.02 45.122L299.133 45.009ZM297.438 44.896C296.308 45.122 295.328 45.6493 294.5 46.478C295.253 45.9507 296.082 45.5363 296.986 45.235C297.89 44.8583 298.831 44.67 299.811 44.67C299.66 44.5947 299.509 44.557 299.359 44.557C299.208 44.6323 299.02 44.67 298.794 44.67C298.718 44.5947 298.605 44.557 298.455 44.557C298.304 44.557 298.078 44.5947 297.777 44.67C297.551 44.7453 297.438 44.8207 297.438 44.896ZM304.444 47.834C304.444 48.2107 304.519 48.5497 304.67 48.851C304.82 49.077 304.971 49.3407 305.122 49.642C304.971 49.3407 304.896 49.0393 304.896 48.738C305.046 48.8887 305.159 49.1147 305.235 49.416C305.31 49.642 305.423 49.8303 305.574 49.981C305.574 49.755 305.423 49.3783 305.122 48.851C304.896 48.3237 304.67 47.9847 304.444 47.834ZM298.794 44.105C298.794 44.2557 298.643 44.331 298.342 44.331C298.04 44.2557 297.927 44.2933 298.003 44.444L299.924 44.105C299.547 44.0297 299.246 43.992 299.02 43.992L298.794 44.105ZM285.573 80.943C285.497 80.8677 285.384 80.83 285.234 80.83C285.158 80.7547 285.121 80.6417 285.121 80.491C285.271 80.5663 285.347 80.6417 285.347 80.717C285.422 80.7923 285.497 80.8677 285.573 80.943ZM343.877 82.073C342.596 82.073 341.504 81.9223 340.6 81.621C339.696 81.3197 338.717 80.604 337.662 79.474C337.059 78.8713 336.683 77.892 336.532 76.536C336.457 75.1047 336.457 73.5227 336.532 71.79C336.683 70.0573 336.871 68.287 337.097 66.479C337.323 64.5957 337.511 62.9007 337.662 61.394C337.888 59.812 338.001 58.4937 338.001 57.439C338.001 56.3843 337.813 55.8193 337.436 55.744C335.854 57.552 334.46 59.3223 333.255 61.055C332.125 62.7877 331.07 64.558 330.091 66.366C329.112 68.0987 328.17 69.9067 327.266 71.79C326.362 73.598 325.42 75.4813 324.441 77.44V77.779C323.838 79.361 323.047 80.3403 322.068 80.717C321.089 81.0183 319.996 80.5663 318.791 79.361C318.188 79.135 317.623 78.9843 317.096 78.909C316.644 78.8337 316.23 78.7583 315.853 78.683C315.476 78.6077 315.137 78.4947 314.836 78.344C314.61 78.118 314.422 77.7413 314.271 77.214C314.271 75.406 314.384 73.2967 314.61 70.886C314.836 68.4753 315.1 66.027 315.401 63.541C315.778 60.9797 316.192 58.5313 316.644 56.196C317.096 53.7853 317.51 51.7137 317.887 49.981C318.113 49.1523 318.452 48.5497 318.904 48.173C319.356 47.7963 319.846 47.5327 320.373 47.382C320.976 47.2313 321.616 47.1183 322.294 47.043C322.972 46.9677 323.612 46.817 324.215 46.591C324.742 46.139 325.307 45.913 325.91 45.913C326.513 45.913 327.04 46.0637 327.492 46.365C328.019 46.6663 328.396 47.0807 328.622 47.608C328.923 48.1353 329.036 48.6627 328.961 49.19C328.81 50.0187 328.584 51.0357 328.283 52.241C328.057 53.4463 327.793 54.727 327.492 56.083C327.266 57.439 327.002 58.7573 326.701 60.038C326.475 61.3187 326.249 62.411 326.023 63.315C326.475 62.637 327.078 61.6577 327.831 60.377C328.584 59.0963 329.451 57.778 330.43 56.422C331.409 55.066 332.502 53.7853 333.707 52.58C334.912 51.3747 336.193 50.5083 337.549 49.981C338.227 49.6797 339.131 49.529 340.261 49.529C341.391 49.529 342.521 49.642 343.651 49.868C344.856 50.094 345.911 50.4707 346.815 50.998C347.794 51.45 348.472 52.0527 348.849 52.806C349.527 54.2373 349.828 56.1207 349.753 58.456C349.678 60.716 349.489 62.976 349.188 65.236C348.962 67.496 348.698 69.5677 348.397 71.451C348.171 73.259 348.209 74.4643 348.51 75.067C348.661 75.4437 349.263 75.18 350.318 74.276C351.448 73.2967 352.804 71.903 354.386 70.095C355.968 68.287 357.701 66.1777 359.584 63.767C361.543 61.281 363.464 58.7573 365.347 56.196C365.799 55.518 366.213 55.292 366.59 55.518C367.042 55.6687 367.419 56.0077 367.72 56.535C368.021 57.0623 368.21 57.665 368.285 58.343C368.436 58.9457 368.436 59.3977 368.285 59.699C367.532 60.9797 366.59 62.4487 365.46 64.106C364.405 65.688 363.2 67.3077 361.844 68.965C360.488 70.6223 359.019 72.242 357.437 73.824C355.93 75.406 354.386 76.8373 352.804 78.118C351.297 79.3233 349.753 80.3027 348.171 81.056C346.664 81.734 345.233 82.073 343.877 82.073Z" fill="#3BE49D"/>
</svg>
